<svg viewBox="0 0 490 12" xmlns="http://www.w3.org/2000/svg" xmlns:xlink="http://www.w3.org/1999/xlink" width="490.000000" height="12.000000" fill="none" customFrame="#000000">
	<path id="Vector" d="M363.078 0.000932675C364.466 0.000932675 365.853 0.000699506 367.24 0.000466338C371.404 -0.000233624 375.569 -0.000933586 379.733 0.00467432L379.985 0.00503394C382.125 0.00781481 384.271 0.0106034 386.264 0.542924C386.587 0.628898 386.751 0.912985 386.988 1.10362C386.804 1.17091 386.62 1.29801 386.429 1.30175C382.66 1.36156 378.891 1.4438 375.115 1.45128C365.341 1.46997 355.573 1.46248 345.799 1.44379C344.49 1.44006 343.175 1.31671 341.866 1.22326C341.695 1.21249 341.397 1.06035 341.397 0.998657C341.397 0.996116 341.398 0.993729 341.399 0.991511C341.484 0.770969 341.616 0.412112 341.859 0.374732C342.905 0.206522 343.997 0.0457832 345.076 0.0420452C349.575 0.0196146 354.071 0.0224131 358.569 0.0252128C360.067 0.0261456 361.566 0.0270786 363.065 0.0270786C363.078 0.0158646 363.078 0.00840867 363.078 0.000932675ZM330.072 2.85301C330.122 2.932 330.147 3.00769 330.147 3.07712C330.147 3.26397 329.964 3.40544 329.585 3.44359C328.283 3.57442 326.967 3.69404 325.645 3.7202C322.771 3.77253 319.89 3.76133 317.246 3.77628C316.907 3.91821 316.75 4.03596 316.75 4.12788C316.75 4.2272 316.934 4.29635 317.272 4.33324C317.923 4.40426 318.594 4.41921 319.259 4.41921C343.944 4.4678 368.637 4.49771 393.322 4.56873C395.98 4.57621 398.637 4.76686 401.281 4.95002C404.386 5.16308 407.471 5.27896 410.582 4.95376L410.675 4.94415C411.949 4.81238 413.277 4.67507 414.548 4.74441C424.367 5.28149 434.205 5.27602 444.041 5.27056C445.98 5.26948 447.919 5.2684 449.857 5.27148C451.166 5.27522 452.475 5.42472 453.777 5.53312C453.873 5.54041 453.995 5.72879 453.995 5.83524L453.994 5.8434C453.988 5.95181 453.883 6.12 453.738 6.1499C453.522 6.19669 453.305 6.25223 453.086 6.30805C452.483 6.46183 451.871 6.61768 451.278 6.59849C451.062 6.59155 450.847 6.58417 450.632 6.57681C448.412 6.50081 446.218 6.42568 444.029 6.84142C443.459 6.95033 442.809 6.92523 442.162 6.90025C441.898 6.89007 441.635 6.87992 441.378 6.87884C439.154 6.87634 436.929 6.8726 434.704 6.86885C430.259 6.86137 425.814 6.85389 421.369 6.85639C411.582 6.86012 401.801 6.8788 392.014 6.88627C388.679 6.89001 385.357 6.94238 382.035 7.20404C379.621 7.39468 377.161 7.41335 374.721 7.42457C357.376 7.50307 340.024 7.5442 322.679 7.62643C317.351 7.6526 312.03 7.68249 306.695 7.98153C302.43 8.22269 298.118 8.22075 293.814 8.2188C292.781 8.21834 291.749 8.21787 290.718 8.22076C265.361 8.27683 240.005 8.28804 214.655 8.35158C203.979 8.37775 193.304 8.52728 182.628 8.54597C176.333 8.55443 170.039 8.52697 163.745 8.4995C158.92 8.47844 154.094 8.45738 149.267 8.45252C133.698 8.43757 118.128 8.44128 102.559 8.47492C99.6781 8.4824 96.797 8.65809 93.9095 8.76275C91.6928 8.84125 89.4762 8.97583 87.2596 9.00573C82.1488 9.07676 77.0313 9.08797 71.914 9.14778C71.3603 9.15455 70.8052 9.15768 70.2499 9.16081C68.3512 9.17152 66.4492 9.18224 64.5866 9.33842C58.8443 9.82436 53.0626 9.84679 47.2874 9.95146C44.6235 10.0001 41.9726 10.172 39.3087 10.2916C32.4417 10.6056 25.647 11.2934 18.7537 11.4803C16.9843 11.5289 15.2282 11.7719 13.4588 11.8242C10.1371 11.9251 6.80214 12.0036 3.47387 11.9999C1.55978 11.9999 0.277157 11.1439 0.191648 10.0038C0.106139 8.87492 0.0534921 7.74228 0.000871201 6.61341C0.000289094 6.60084 0 6.58834 0 6.5759C0 6.02648 0.564751 5.61439 1.3559 5.40604C2.55302 5.09579 3.81589 4.80425 5.10511 4.68838C6.85475 4.53138 8.6505 4.565 10.4265 4.47903C13.5245 4.33324 16.6225 4.16876 19.7205 3.99681C20.8256 3.937 21.9241 3.80991 23.0291 3.76506C31.455 3.4249 39.8547 2.92777 48.2411 2.38576C51.326 2.18764 54.4569 2.225 57.5682 2.17267C63.3433 2.07922 69.1316 2.13531 74.8673 1.58956C76.1351 1.46994 77.4342 1.46104 78.7343 1.45214C79.2217 1.4488 79.7092 1.44546 80.1952 1.43629C87.5227 1.3092 94.8501 1.29426 102.178 0.890559C107.716 0.585871 113.317 0.590077 118.897 0.594267C119.547 0.594755 120.196 0.595242 120.845 0.595242C133.953 0.593124 147.059 0.611416 160.165 0.629707C170.189 0.643697 180.213 0.657687 190.239 0.662546C218.259 0.677498 246.286 0.681202 274.307 0.673726C283.424 0.669988 292.547 0.632646 301.663 0.572838C304.327 0.554148 306.985 0.404612 309.649 0.322376C309.908 0.314492 310.167 0.304965 310.426 0.295431C311.274 0.264281 312.124 0.233056 312.97 0.258814C315.851 0.34105 318.732 0.550392 321.607 0.55413C323.349 0.556593 325.091 0.468197 326.833 0.379797C327.735 0.334015 328.637 0.288232 329.539 0.255072C329.691 0.247876 330.008 0.403497 330.008 0.461823C330.008 0.464088 330.007 0.466207 330.006 0.468163C329.921 0.673753 329.809 0.991494 329.566 1.04009C328.743 1.20456 327.862 1.34286 326.994 1.36155C324.33 1.4251 321.659 1.41385 318.989 1.46992C318.121 1.48861 317.233 1.58208 316.404 1.72787C316.16 1.76898 316.035 2.10539 315.963 2.32219C315.962 2.32562 315.961 2.32926 315.961 2.33309C315.961 2.41274 316.214 2.57366 316.377 2.59506C316.599 2.62219 316.826 2.6571 317.054 2.69224C317.707 2.7927 318.373 2.89507 318.963 2.82307C322.705 2.37451 326.395 2.59135 330.072 2.85301ZM396.815 0.370953C397.004 0.360773 397.187 0.345458 397.365 0.3306C397.774 0.296356 398.154 0.264546 398.512 0.303649C398.703 0.323396 398.996 0.624217 398.996 0.769848C398.996 0.789622 398.991 0.806535 398.979 0.819495C398.657 1.17087 397.999 1.20826 397.446 1.02136C397.177 0.927911 397.085 0.662517 396.815 0.370953ZM475.332 1.29797C475.135 1.27928 474.819 1.29426 474.753 1.23071C474.683 1.15966 474.648 1.0974 474.648 1.04573C474.648 0.909844 474.885 0.847211 475.319 0.890543C475.49 0.905495 475.628 1.02138 475.779 1.08867C475.628 1.15595 475.483 1.22695 475.332 1.29797ZM443.95 1.16342L443.536 1.0812L443.871 0.954074L443.95 1.16342ZM482.502 1.23442L482.265 1.02138L482.745 1.02512L482.502 1.23442ZM306.899 2.52032C306.735 2.45304 306.57 2.32967 306.406 2.32594C302.65 2.28482 298.894 2.25118 295.132 2.23997C294.554 2.23741 293.973 2.27883 293.368 2.322C293.091 2.34174 292.809 2.36185 292.52 2.37827C292.976 2.9823 293.744 2.97145 294.443 2.96159C294.591 2.95949 294.737 2.95744 294.875 2.96138C296.684 3.00623 298.375 3.06232 299.539 4.05663C299.789 4.2697 300.848 4.36315 301.354 4.25101C303.203 3.84731 304.979 3.33895 306.761 2.85301C306.873 2.81936 306.853 2.63246 306.899 2.52032ZM270.433 2.4119C270.277 2.4119 270.129 2.41059 269.987 2.40932C269.649 2.40633 269.344 2.40361 269.038 2.41939C268.841 2.4306 268.539 2.47919 268.479 2.55769C268.443 2.60537 268.426 2.64892 268.426 2.68851C268.426 2.84446 268.695 2.93911 269.157 2.98383C269.801 3.04364 270.433 3.15204 271.071 3.21558C271.613 3.27059 271.946 3.14212 271.946 2.87251C271.946 2.86731 271.946 2.86206 271.946 2.85675C271.939 2.75956 271.755 2.62126 271.597 2.58388C271.189 2.49791 270.762 2.45676 270.433 2.4119ZM378.174 2.5764L378.602 2.50161L378.542 2.70348L378.174 2.5764ZM356.284 2.77823C356.586 2.54647 356.968 2.49043 357.336 2.66612C357.42 2.70593 357.481 2.81168 357.481 2.89509C357.481 2.92916 357.471 2.9595 357.448 2.9801C357.185 3.23054 356.784 3.27542 356.415 3.09974C356.297 3.04367 356.323 2.88663 356.284 2.77823ZM465.828 6.74353C465.602 6.56022 465.308 6.39009 465.216 6.18727C465.19 6.1302 465.176 6.06442 465.176 5.99653C465.176 5.84206 465.245 5.67665 465.387 5.57797C465.729 5.33874 466.761 5.45088 466.991 5.76487C467.037 5.82433 467.058 5.89853 467.058 5.97635C467.058 6.1236 466.982 6.28383 466.853 6.38165C466.633 6.55139 466.181 6.63006 465.828 6.74353ZM475.299 5.70136C475.641 5.83593 476.121 5.92937 476.279 6.11253C476.347 6.19101 476.381 6.29694 476.381 6.40504C476.381 6.54923 476.321 6.69727 476.2 6.78913C475.51 7.32367 474.503 7.47318 473.359 7.20779C473.112 7.1511 472.84 6.85945 472.84 6.68038C472.84 6.65869 472.844 6.63866 472.852 6.62089C473.175 5.97796 474.095 5.66772 475.299 5.70136ZM488.448 6.69193C487.954 6.63586 487.323 6.59098 486.731 6.48258C486.41 6.42267 486.245 6.29943 486.245 6.15849C486.245 6.08836 486.286 6.01386 486.369 5.94059C486.461 5.85835 486.725 5.78732 486.896 5.7948C487.52 5.82097 488.152 5.86582 488.763 5.93685C489.491 6.02175 490 6.2391 490 6.3904C490 6.44558 489.932 6.49198 489.783 6.51995C489.395 6.59471 488.981 6.62464 488.448 6.69193ZM465.828 6.74353C465.843 6.75616 465.859 6.76887 465.873 6.78164L465.814 6.74797L465.828 6.74353Z" fill="rgb(46.3604,104.381,252.875)" fill-rule="evenodd" />
</svg>
