<svg viewBox="0 0 105 40" xmlns="http://www.w3.org/2000/svg" xmlns:xlink="http://www.w3.org/1999/xlink" width="105.000000" height="40.000000" fill="none">
	<rect id="logo-77" width="105.000000" height="40.000000" x="0.000000" y="0.000000" />
	<path id="Vector" d="M48.1357 35.2381L50.8701 35.2381L50.8701 24.9238L48.1357 24.9238L48.1357 35.2381ZM48.1357 23.3153L50.8701 23.3153L50.8701 20.8624L48.1357 20.8624L48.1357 23.3153Z" fill="rgb(160,161,163)" fill-rule="nonzero" />
	<path id="Vector" d="M52.6323 38.6159L55.3667 38.6159L55.3667 34.072L55.407 34.072C55.99 34.9566 56.935 35.5397 58.3826 35.5397C61.0366 35.5397 62.8461 33.4286 62.8461 30.091C62.8461 26.874 61.0969 24.6423 58.3625 24.6423C56.9551 24.6423 55.99 25.3058 55.3265 26.2105L55.2662 26.2105L55.2662 24.9238L52.6323 24.9238L52.6323 38.6159ZM57.7996 33.2677C56.171 33.2677 55.3064 32.0413 55.3064 30.1714C55.3064 28.3217 55.99 26.8539 57.699 26.8539C59.3879 26.8539 60.0715 28.2211 60.0715 30.1714C60.0715 32.1217 59.1869 33.2677 57.7996 33.2677Z" fill="rgb(160,161,163)" fill-rule="nonzero" />
	<path id="Vector" d="M68.3006 35.5397C70.8741 35.5397 72.6434 34.2931 72.6434 32.2222C72.6434 29.8095 70.7334 29.327 69.0043 28.9651C67.5365 28.6635 66.1693 28.583 66.1693 27.6984C66.1693 26.9545 66.873 26.5523 67.9387 26.5523C69.1048 26.5523 69.8085 26.9545 69.9291 28.0603L72.4022 28.0603C72.2011 25.9894 70.6932 24.6423 67.9789 24.6423C65.6265 24.6423 63.7767 25.7079 63.7767 27.9396C63.7767 30.1915 65.5863 30.6942 67.436 31.0561C68.8434 31.3375 70.1503 31.4381 70.1503 32.4233C70.1503 33.1471 69.4667 33.6095 68.2603 33.6095C67.0339 33.6095 66.1894 33.0868 66.0085 31.9005L63.4751 31.9005C63.636 34.0921 65.3048 35.5397 68.3006 35.5397Z" fill="rgb(160,161,163)" fill-rule="nonzero" />
	<path id="Vector" d="M83.0255 35.2381L83.0255 24.9238L80.2911 24.9238L80.2911 30.8751C80.2911 32.2423 79.507 33.2074 78.2202 33.2074C77.0541 33.2074 76.5112 32.5439 76.5112 31.3375L76.5112 24.9238L73.7969 24.9238L73.7969 31.8C73.7969 34.0518 75.0837 35.5196 77.3758 35.5196C78.8234 35.5196 79.6276 34.9767 80.3314 34.0317L80.3917 34.0317L80.3917 35.2381L83.0255 35.2381Z" fill="rgb(160,161,163)" fill-rule="nonzero" />
	<path id="Vector" d="M84.7939 35.2381L87.5284 35.2381L87.5284 29.2465C87.5284 27.8793 88.2723 26.9947 89.3781 26.9947C90.3834 26.9947 90.9665 27.5978 90.9665 28.764L90.9665 35.2381L93.7009 35.2381L93.7009 29.2465C93.7009 27.8793 94.4046 26.9947 95.5506 26.9947C96.5559 26.9947 97.139 27.5978 97.139 28.764L97.139 35.2381L99.8734 35.2381L99.8734 28.3016C99.8734 26.0497 98.6469 24.6423 96.4755 24.6423C95.1686 24.6423 94.0829 25.3259 93.3792 26.4518L93.339 26.4518C92.8363 25.3661 91.7908 24.6423 90.4839 24.6423C89.0564 24.6423 88.0511 25.3661 87.4881 26.3111L87.4278 26.3111L87.4278 24.9238L84.7939 24.9238L84.7939 35.2381Z" fill="rgb(160,161,163)" fill-rule="nonzero" />
	<path id="Vector" d="M48.1763 17.572L50.9107 17.572L50.9107 3.19629L48.1763 3.19629L48.1763 17.572Z" fill="rgb(160,161,163)" fill-rule="nonzero" />
	<path id="Vector" d="M57.5964 17.8736C60.7933 17.8736 62.9848 15.5011 62.9848 12.4249C62.9848 9.34869 60.7933 6.9762 57.5964 6.9762C54.3996 6.9762 52.208 9.34869 52.208 12.4249C52.208 15.5011 54.3996 17.8736 57.5964 17.8736ZM57.5964 15.7826C55.9075 15.7826 54.9827 14.4355 54.9827 12.4249C54.9827 10.4143 55.9075 9.04711 57.5964 9.04711C59.2652 9.04711 60.2102 10.4143 60.2102 12.4249C60.2102 14.4355 59.2652 15.7826 57.5964 15.7826Z" fill="rgb(160,161,163)" fill-rule="nonzero" />
	<path id="Vector" d="M68.8 21.0906C70.3281 21.0906 71.6551 20.7287 72.5196 19.9244C73.2836 19.2207 73.7461 18.2355 73.7461 16.7879L73.7461 7.25768L71.1122 7.25768L71.1122 8.3434L71.072 8.3434C70.4487 7.47884 69.5037 6.9762 68.2169 6.9762C65.6032 6.9762 63.7534 8.94658 63.7534 12.0228C63.7534 15.1392 66.0053 16.9487 68.2974 16.9487C69.6043 16.9487 70.3884 16.426 70.9916 15.7424L71.0519 15.7424L71.0519 16.8683C71.0519 18.2757 70.308 19.0196 68.7598 19.0196C67.4931 19.0196 66.9101 18.517 66.6889 17.8736L63.9746 17.8736C64.2561 19.8842 65.9852 21.0906 68.8 21.0906ZM68.7598 14.7572C67.3524 14.7572 66.4275 13.7318 66.4275 11.9826C66.4275 10.2535 67.3524 9.16774 68.7397 9.16774C70.3884 9.16774 71.1926 10.4545 71.1926 11.9625C71.1926 13.4905 70.4889 14.7572 68.7598 14.7572Z" fill="rgb(160,161,163)" fill-rule="nonzero" />
	<path id="Vector" d="M80.3923 17.8736C83.5891 17.8736 85.7807 15.5011 85.7807 12.4249C85.7807 9.34869 83.5891 6.9762 80.3923 6.9762C77.1955 6.9762 75.0039 9.34869 75.0039 12.4249C75.0039 15.5011 77.1955 17.8736 80.3923 17.8736ZM80.3923 15.7826C78.7034 15.7826 77.7785 14.4355 77.7785 12.4249C77.7785 10.4143 78.7034 9.04711 80.3923 9.04711C82.0611 9.04711 83.0061 10.4143 83.0061 12.4249C83.0061 14.4355 82.0611 15.7826 80.3923 15.7826Z" fill="rgb(160,161,163)" fill-rule="nonzero" />
	<path id="Vector" d="M88.1777 13.6313L99.9998 13.6313L99.9998 11.2789L88.1777 11.2789L88.1777 13.6313Z" fill="rgb(160,161,163)" fill-rule="nonzero" />
	<path id="Vector" d="M100.867 23.1718C100.867 22.7091 101.242 22.334 101.705 22.334L103.38 22.334C103.843 22.334 104.218 22.7091 104.218 23.1718C104.218 23.6344 103.843 24.0095 103.38 24.0095L101.705 24.0095C101.242 24.0095 100.867 23.6344 100.867 23.1718Z" fill="rgb(160,161,163)" fill-rule="nonzero" />
	<path id="Vector" d="M20.5215 0C31.5672 0 40.5215 8.9543 40.5215 20C40.5215 31.0457 31.5672 40 20.5215 40C9.47579 40 0.521484 31.0457 0.521484 20C0.521484 8.9543 9.47579 0 20.5215 0ZM19.7986 1.49659C17.517 1.81769 15.3444 3.65108 13.6579 6.7174C13.1687 7.60683 12.7273 8.58946 12.3426 9.65044C14.6358 9.07417 17.1549 8.73442 19.7986 8.68187L19.7986 1.49659ZM10.6523 10.1308C11.1306 8.62958 11.7158 7.2484 12.3911 6.02065C13.2271 4.50059 14.2193 3.18795 15.3372 2.17977C9.25828 3.94523 4.46671 8.73679 2.70126 14.8157C3.70943 13.6978 5.02208 12.7056 6.54214 11.8696C7.76989 11.1943 9.15106 10.6091 10.6523 10.1308ZM10.1719 11.8211C9.59565 14.1143 9.25591 16.6334 9.20336 19.2771L2.01807 19.2771C2.33918 16.9954 4.17257 14.8228 7.23889 13.1364C8.12832 12.6472 9.11095 12.2058 10.1719 11.8211ZM10.6495 19.2771C10.7092 16.392 11.1245 13.6834 11.8117 11.2902C14.2049 10.603 16.9136 10.1876 19.7986 10.1279L19.7986 13.2508C18.7223 16.0062 16.5271 18.2012 13.7716 19.2771L10.6495 19.2771ZM9.20336 20.7229L2.01807 20.7229C2.33918 23.0046 4.17257 25.1771 7.23889 26.8636C8.12832 27.3528 9.11095 27.7942 10.1719 28.1789C9.59565 25.8857 9.25591 23.3666 9.20336 20.7229ZM11.8117 28.7098C11.1245 26.3166 10.7092 23.608 10.6495 20.7229L13.7716 20.7229C16.5271 21.7988 18.7224 23.9938 19.7986 26.7492L19.7986 29.8721C16.9136 29.8124 14.2049 29.397 11.8117 28.7098ZM10.6523 29.8692C9.15106 29.3909 7.76989 28.8057 6.54214 28.1304C5.02208 27.2944 3.70943 26.3022 2.70126 25.1843C4.46671 31.2632 9.25828 36.0548 15.3372 37.8202C14.2193 36.812 13.2271 35.4994 12.3911 33.9793C11.7158 32.7516 11.1306 31.3704 10.6523 29.8692ZM19.7986 38.5034C17.517 38.1823 15.3444 36.3489 13.6579 33.2826C13.1687 32.3932 12.7273 31.4105 12.3426 30.3496C14.6358 30.9258 17.1549 31.2656 19.7986 31.3181L19.7986 38.5034ZM25.7058 37.8202C26.8237 36.812 27.8159 35.4994 28.652 33.9793C29.3272 32.7516 29.9124 31.3704 30.3907 29.8692C31.8919 29.3909 33.2731 28.8057 34.5009 28.1304C36.0209 27.2944 37.3336 26.3022 38.3417 25.1843C36.5763 31.2632 31.7847 36.0548 25.7058 37.8202ZM28.7004 30.3496C28.3157 31.4105 27.8743 32.3932 27.3851 33.2826C25.6987 36.3489 23.5261 38.1823 21.2444 38.5034L21.2444 31.3181C23.8881 31.2656 26.4072 30.9258 28.7004 30.3496ZM30.8711 28.1789C31.932 27.7942 32.9147 27.3528 33.8041 26.8636C36.8704 25.1771 38.7038 23.0046 39.0249 20.7229L31.8396 20.7229C31.7871 23.3666 31.4473 25.8857 30.8711 28.1789ZM30.3936 20.7229C30.3339 23.608 29.9185 26.3166 29.2313 28.7098C26.8381 29.397 24.1295 29.8124 21.2444 29.8721L21.2444 26.7515C22.3203 23.9951 24.516 21.7991 27.2723 20.7229L30.3936 20.7229ZM31.8396 19.2771L39.0249 19.2771C38.7038 16.9954 36.8704 14.8228 33.8041 13.1364C32.9147 12.6472 31.932 12.2058 30.8711 11.8211C31.4473 14.1143 31.7871 16.6334 31.8396 19.2771ZM29.2313 11.2902C29.9185 13.6834 30.3339 16.392 30.3936 19.2771L27.2723 19.2771C24.516 18.2009 22.3203 16.0049 21.2444 13.2485L21.2444 10.1279C24.1295 10.1876 26.8381 10.603 29.2313 11.2902ZM30.3907 10.1308C31.8919 10.6091 33.2731 11.1943 34.5009 11.8696C36.0209 12.7056 37.3336 13.6978 38.3417 14.8157C36.5763 8.73679 31.7847 3.94523 25.7058 2.17977C26.8237 3.18795 27.8159 4.50059 28.652 6.02065C29.3272 7.2484 29.9124 8.62958 30.3907 10.1308ZM21.2444 1.49659C23.5261 1.81769 25.6987 3.65108 27.3851 6.7174C27.8743 7.60684 28.3157 8.58946 28.7004 9.65044C26.4072 9.07417 23.8881 8.73442 21.2444 8.68187L21.2444 1.49659Z" fill="rgb(160,161,163)" fill-rule="evenodd" />
</svg>
