<svg viewBox="0 0 48 48" xmlns="http://www.w3.org/2000/svg" xmlns:xlink="http://www.w3.org/1999/xlink" width="48.000000" height="48.000000" fill="none">
	<rect id="fi_11249222" width="48.000000" height="48.000000" x="0.000000" y="0.000000" fill="rgb(255,255,255)" fill-opacity="0" />
	<path id="Vector" d="M38 8.5L10 8.5C6.966 8.5 4.5 10.966 4.5 14L4.5 34C4.5 37.034 6.966 39.5 10 39.5L38 39.5C41.034 39.5 43.5 37.034 43.5 34L43.5 14C43.5 10.966 41.034 8.5 38 8.5ZM10 11.5L38 11.5C39.378 11.5 40.5 12.622 40.5 14L40.5 18.5L7.5 18.5L7.5 14C7.5 12.622 8.622 11.5 10 11.5ZM38 36.5L10 36.5C8.622 36.5 7.5 35.378 7.5 34L7.5 21.5L40.5 21.5L40.5 34C40.5 35.378 39.378 36.5 38 36.5Z" fill="rgb(0.568883,7.9803,26.9485)" fill-rule="nonzero" />
	<path id="Vector" d="M17.5 32C17.5 32.828 16.828 33.5 16 33.5L12 33.5C11.172 33.5 10.5 32.828 10.5 32C10.5 31.172 11.172 30.5 12 30.5L16 30.5C16.828 30.5 17.5 31.172 17.5 32ZM26 30.5L22 30.5C21.172 30.5 20.5 31.172 20.5 32C20.5 32.828 21.172 33.5 22 33.5L26 33.5C26.828 33.5 27.5 32.828 27.5 32C27.5 31.172 26.828 30.5 26 30.5Z" fill="rgb(46.3604,104.381,252.875)" fill-rule="nonzero" />
</svg>
