<svg viewBox="0 0 60 60" xmlns="http://www.w3.org/2000/svg" xmlns:xlink="http://www.w3.org/1999/xlink" width="60.000000" height="60.000000" fill="none">
	<rect id="fi_11249458" width="60.000000" height="60.000000" x="0.000000" y="0.000000" fill="rgb(255,255,255)" fill-opacity="0" />
	<path id="Vector" d="M47.5 49.375L15 49.375C9.83 49.375 5.625 45.17 5.625 40L5.625 20C5.625 14.83 9.83 10.625 15 10.625L47.5 10.625C51.2925 10.625 54.375 13.7075 54.375 17.5L54.375 42.5C54.375 46.2925 51.2925 49.375 47.5 49.375ZM15 14.375C11.8975 14.375 9.375 16.8975 9.375 20L9.375 40C9.375 43.1025 11.8975 45.625 15 45.625L47.5 45.625C49.2225 45.625 50.625 44.2225 50.625 42.5L50.625 17.5C50.625 15.7775 49.2225 14.375 47.5 14.375L15 14.375Z" fill="rgb(0.568883,7.9803,26.9485)" fill-rule="nonzero" />
	<path id="Vector" d="M52.5002 20.625L42.7002 20.625C40.2352 20.625 37.8202 21.6275 36.0752 23.375C34.3027 25.1475 33.3252 27.5 33.3252 30C33.3252 35.17 37.5302 39.375 42.7002 39.375L52.5002 39.375C53.5352 39.375 54.3752 38.535 54.3752 37.5L54.3752 22.5C54.3752 21.465 53.5352 20.625 52.5002 20.625ZM50.6252 35.625L42.7002 35.625C39.5977 35.625 37.0752 33.1025 37.0752 30C37.0752 28.5 37.6602 27.09 38.7252 26.025C39.7727 24.9775 41.2227 24.375 42.7002 24.375L50.6252 24.375L50.6252 35.625ZM43.8252 28.675C44.1752 29.025 44.3752 29.5 44.3752 30C44.3752 30.25 44.3252 30.475 44.2252 30.725C44.1502 30.95 44.0002 31.15 43.8252 31.325C43.4752 31.675 43.0002 31.875 42.5002 31.875C42.0002 31.875 41.5252 31.675 41.1752 31.325C40.8252 30.975 40.6252 30.5 40.6252 30C40.6252 29.5 40.8252 29.025 41.1752 28.675C41.8752 27.975 43.1252 27.975 43.8252 28.675Z" fill="rgb(46.3604,104.381,252.875)" fill-rule="nonzero" />
</svg>
