<svg viewBox="0 0 48 48" xmlns="http://www.w3.org/2000/svg" xmlns:xlink="http://www.w3.org/1999/xlink" width="48.000000" height="48.000000" fill="none">
	<rect id="fi_11458391" width="48.000000" height="48.000000" x="0.000000" y="0.000000" fill="rgb(255,255,255)" fill-opacity="0" />
	<path id="Vector" d="M43.136 26.514L40.274 16.478C39.6 14.136 37.426 12.5 34.988 12.5L31.998 12.5C31.17 12.5 30.498 13.172 30.498 14C30.498 14.828 31.17 15.5 31.998 15.5L34.988 15.5C36.096 15.5 37.084 16.244 37.39 17.304L39.442 24.5L34 24.5C32.07 24.5 30.5 26.07 30.5 28C30.5 29.378 29.378 30.5 28 30.5L20 30.5C18.622 30.5 17.5 29.378 17.5 28C17.5 26.07 15.93 24.5 14 24.5L8.558 24.5L10.608 17.308C10.914 16.242 11.902 15.5 13.01 15.5L16 15.5C16.828 15.5 17.5 14.828 17.5 14C17.5 13.172 16.828 12.5 16 12.5L13.01 12.5C10.572 12.5 8.398 14.136 7.724 16.482L4.864 26.514C4.622 27.362 4.5 28.238 4.5 29.118L4.5 38C4.5 41.034 6.966 43.5 10 43.5L38 43.5C41.034 43.5 43.5 41.034 43.5 38L43.5 29.118C43.5 28.238 43.378 27.362 43.136 26.514ZM40.5 38C40.5 39.378 39.378 40.5 38 40.5L10 40.5C8.622 40.5 7.5 39.378 7.5 38L7.5 29.118C7.5 28.616 7.572 28.118 7.686 27.63C7.772 27.556 7.878 27.5 8 27.5L14 27.5C14.276 27.5 14.5 27.724 14.5 28C14.5 31.034 16.966 33.5 20 33.5L28 33.5C31.034 33.5 33.5 31.034 33.5 28C33.5 27.724 33.724 27.5 34 27.5L40 27.5C40.122 27.5 40.226 27.556 40.314 27.63C40.428 28.118 40.5 28.616 40.5 29.118L40.5 38Z" fill="rgb(0.568883,7.9803,26.9485)" fill-rule="nonzero" />
	<path id="Vector" d="M29.0521 18.872C28.4621 18.288 27.5101 18.298 26.9301 18.888L25.4981 20.342L25.4981 6C25.4981 5.172 24.8261 4.5 23.9981 4.5C23.1701 4.5 22.4981 5.172 22.4981 6L22.4981 20.398L21.0541 18.966C20.4681 18.382 19.5161 18.384 18.9321 18.974C18.3481 19.562 18.3521 20.512 18.9401 21.096L22.9401 25.066C23.2221 25.346 23.6021 25.502 23.9961 25.502L24.0041 25.502C24.4041 25.502 24.7861 25.338 25.0641 25.054L29.0641 20.994C29.6461 20.404 29.6381 19.454 29.0481 18.872L29.0521 18.872Z" fill="rgb(46.3604,104.381,252.875)" fill-rule="nonzero" />
</svg>
