<svg viewBox="0 0 60 60" xmlns="http://www.w3.org/2000/svg" xmlns:xlink="http://www.w3.org/1999/xlink" width="60.000000" height="60.000000" fill="none">
	<defs>
		<clipPath id="clipPath_0">
			<rect width="29.000000" height="29.000000" x="23.000000" y="26.000000" fill="rgb(255,255,255)" />
		</clipPath>
	</defs>
	<rect id="fi_10994650" width="60.000000" height="60.000000" x="0.000000" y="0.000000" fill="rgb(255,255,255)" fill-opacity="0" />
	<path id="Vector" d="M46.875 12.5L46.875 30C46.875 31.035 46.035 31.875 45 31.875C43.965 31.875 43.125 31.035 43.125 30L43.125 12.5C43.125 10.7775 41.7225 9.375 40 9.375L15 9.375C13.2775 9.375 11.875 10.7775 11.875 12.5L11.875 45C11.875 46.7225 13.2775 48.125 15 48.125L30 48.125C31.035 48.125 31.875 48.965 31.875 50C31.875 51.035 31.035 51.875 30 51.875L15 51.875C11.2075 51.875 8.125 48.7925 8.125 45L8.125 12.5C8.125 8.7075 11.2075 5.625 15 5.625L40 5.625C43.7925 5.625 46.875 8.7075 46.875 12.5ZM37.5 13.125L17.5 13.125C16.465 13.125 15.625 13.965 15.625 15C15.625 16.035 16.465 16.875 17.5 16.875L37.5 16.875C38.535 16.875 39.375 16.035 39.375 15C39.375 13.965 38.535 13.125 37.5 13.125ZM29.375 22.5C29.375 21.465 28.535 20.625 27.5 20.625L17.5 20.625C16.465 20.625 15.625 21.465 15.625 22.5C15.625 23.535 16.465 24.375 17.5 24.375L27.5 24.375C28.535 24.375 29.375 23.535 29.375 22.5ZM17.5 28.125C16.465 28.125 15.625 28.965 15.625 30C15.625 31.035 16.465 31.875 17.5 31.875L20 31.875C21.035 31.875 21.875 31.035 21.875 30C21.875 28.965 21.035 28.125 20 28.125L17.5 28.125Z" fill="rgb(0.568883,7.9803,26.9485)" fill-rule="nonzero" />
	<path id="Vector" d="M37.5 25.625C29.5725 25.625 23.125 32.075 23.125 40C23.125 47.925 29.5725 54.375 37.5 54.375C45.4275 54.375 51.875 47.925 51.875 40C51.875 32.075 45.4275 25.625 37.5 25.625ZM37.5 50.625C31.64 50.625 26.875 45.8575 26.875 40C26.875 34.1425 31.64 29.375 37.5 29.375C43.36 29.375 48.125 34.1425 48.125 40C48.125 45.8575 43.36 50.625 37.5 50.625ZM44.2625 40C44.2625 41.035 43.4225 41.875 42.3875 41.875L37.5 41.875C36.465 41.875 35.625 41.035 35.625 40L35.625 34.9125C35.625 33.8775 36.465 33.0375 37.5 33.0375C38.535 33.0375 39.375 33.8775 39.375 34.9125L39.375 38.125L42.3875 38.125C43.4225 38.125 44.2625 38.965 44.2625 40Z" opacity="0" fill="rgb(84,155,255)" fill-rule="nonzero" />
	<g id="xmark-circle" clip-path="url(#clipPath_0)" customFrame="url(#clipPath_0)">
		<rect id="xmark-circle" width="29.000000" height="29.000000" x="23.000000" y="26.000000" />
		<path id="Vector" d="M0 5.59868L5.59868 5.59868L11.1974 5.59868M5.59868 5.59868L5.59868 0M5.59868 5.59868L5.59868 11.1974" stroke="rgb(46.3604,104.381,252.875)" stroke-linecap="round" stroke-linejoin="round" stroke-width="3.47504091" transform="matrix(0.707107,-0.707107,0.707107,0.707107,30,41)" />
		<path id="Vector" d="M37.4998 52.5833C30.8264 52.5833 25.4165 47.1734 25.4165 40.5C25.4165 33.8265 30.8264 28.4166 37.4998 28.4166C44.1733 28.4166 49.5832 33.8265 49.5832 40.5C49.5832 47.1734 44.1733 52.5833 37.4998 52.5833Z" stroke="rgb(46.3604,104.381,252.875)" stroke-linecap="round" stroke-linejoin="round" stroke-width="3.86666656" />
	</g>
</svg>
