<svg viewBox="0 0 48 48" xmlns="http://www.w3.org/2000/svg" xmlns:xlink="http://www.w3.org/1999/xlink" width="48.000000" height="48.000000" fill="none">
	<rect id="fi_11494757" width="48.000000" height="48.000000" x="0.000000" y="0.000000" fill="rgb(255,255,255)" fill-opacity="0" />
	<path id="Vector" d="M41.386 35.426C41.154 34.866 40.606 34.5 40 34.5L8 34.5C7.172 34.5 6.5 35.172 6.5 36C6.5 36.828 7.172 37.5 8 37.5L36.378 37.5L32.938 40.94C32.352 41.526 32.352 42.476 32.938 43.062C33.23 43.354 33.614 43.502 33.998 43.502C34.382 43.502 34.766 43.356 35.058 43.062L41.058 37.062C41.486 36.632 41.616 35.988 41.384 35.428L41.386 35.426Z" fill="rgb(46.3604,104.381,252.875)" fill-rule="nonzero" />
	<path id="Vector" d="M38 4.5L10 4.5C6.966 4.5 4.5 6.966 4.5 10L4.5 26C4.5 29.034 6.966 31.5 10 31.5L38 31.5C41.034 31.5 43.5 29.034 43.5 26L43.5 10C43.5 6.966 41.034 4.5 38 4.5ZM40.5 26C40.5 27.378 39.378 28.5 38 28.5L10 28.5C8.622 28.5 7.5 27.378 7.5 26L7.5 10C7.5 8.622 8.622 7.5 10 7.5L38 7.5C39.378 7.5 40.5 8.622 40.5 10L40.5 26ZM15.5 12C15.5 12.828 14.828 13.5 14 13.5L12 13.5C11.172 13.5 10.5 12.828 10.5 12C10.5 11.172 11.172 10.5 12 10.5L14 10.5C14.828 10.5 15.5 11.172 15.5 12ZM37.5 24C37.5 24.828 36.828 25.5 36 25.5L34 25.5C33.172 25.5 32.5 24.828 32.5 24C32.5 23.172 33.172 22.5 34 22.5L36 22.5C36.828 22.5 37.5 23.172 37.5 24ZM24 10.5C19.864 10.5 16.5 13.864 16.5 18C16.5 22.136 19.864 25.5 24 25.5C28.136 25.5 31.5 22.136 31.5 18C31.5 13.864 28.136 10.5 24 10.5ZM24 22.5C21.518 22.5 19.5 20.482 19.5 18C19.5 15.518 21.518 13.5 24 13.5C26.482 13.5 28.5 15.518 28.5 18C28.5 20.482 26.482 22.5 24 22.5Z" fill="rgb(0.568883,7.9803,26.9485)" fill-rule="nonzero" />
</svg>
